<?xml version="1.0" encoding="iso-8859-1"?>
<!-- Generator: Adobe Illustrator 19.0.0, SVG Export Plug-In . SVG Version: 6.00 Build 0)  -->
<svg version="1.1" id="Layer_1" xmlns="http://www.w3.org/2000/svg" xmlns:xlink="http://www.w3.org/1999/xlink" x="0px" y="0px"
	 viewBox="0 0 265.583 265.583" style="enable-background:new 0 0 265.583 265.583;" xml:space="preserve" >
<g>
	<g>
		<g>
			<path style="fill: white;" d="M264.28,148.489l-30.366-45.017c-1.413-2.097-3.779-3.353-6.305-3.353h-26.262
				c-0.905-12.879-11.646-23.089-24.753-23.089h-67.417c-4.525-25.811-27.084-45.494-54.168-45.494C24.677,31.535,0,56.215,0,86.548
				c0,23.838,15.245,44.178,36.496,51.799v39.41c0,13.409,10.685,24.342,23.982,24.799c-0.008,0.279-0.043,0.553-0.043,0.834
				c0,16.904,13.754,30.657,30.66,30.657s30.66-13.754,30.66-30.657c0-0.266-0.033-0.525-0.041-0.791h41.497
				c-0.01,0.264-0.041,0.522-0.041,0.791c0,16.904,13.751,30.657,30.657,30.657c16.906,0,30.662-13.754,30.662-30.657
				c0-0.266-0.035-0.525-0.041-0.791h33.526c4.2,0,7.609-3.406,7.609-7.609v-42.245C265.584,151.23,265.128,149.747,264.28,148.489z
				 M15.215,86.553c0-21.943,17.852-39.795,39.793-39.795S94.8,64.61,94.8,86.553s-17.852,39.795-39.793,39.795
				C33.066,126.348,15.215,108.496,15.215,86.553z M91.092,218.835c-8.514,0-15.443-6.926-15.443-15.44
				c0-8.517,6.926-15.445,15.443-15.445c8.517,0,15.443,6.926,15.443,15.445C106.535,211.906,99.609,218.835,91.092,218.835z
				 M167.729,187.39h-50.533v-0.004h-0.002c-5.4-8.773-15.065-14.654-26.102-14.654c-11.037,0-20.7,5.881-26.1,14.654h-3.655
				c-5.308,0-9.627-4.319-9.627-9.627v-36.3c1.093,0.063,2.191,0.107,3.3,0.107c28.41,0,51.857-21.649,54.716-49.316h66.869
				c5.306,0,9.625,4.319,9.625,9.627v71.853C178.429,175.729,171.845,180.707,167.729,187.39z M193.828,218.835
				c-8.514,0-15.44-6.926-15.44-15.44c0-8.517,6.924-15.445,15.44-15.445s15.445,6.926,15.445,15.445
				C209.273,211.906,202.342,218.835,193.828,218.835z M219.928,187.386c-4.068-6.607-10.556-11.55-18.23-13.591v-58.459h21.864
				l26.802,39.734v32.316H219.928z"/>
			<path style="fill: white;" d="M71.718,112.305c2.369,0,4.702-1.101,6.186-3.17c2.45-3.414,1.671-8.167-1.745-10.619l-13.543-9.721V64.64
				c0-4.202-3.406-7.609-7.609-7.609s-7.609,3.406-7.609,7.609v27.898c0,0.066,0.018,0.129,0.02,0.195
				c0.013,2.354,1.093,4.669,3.152,6.145l16.716,11.999C68.632,111.841,70.181,112.305,71.718,112.305z"/>
		</g>
	</g>
</g>
<g>
</g>
<g>
</g>
<g>
</g>
<g>
</g>
<g>
</g>
<g>
</g>
<g>
</g>
<g>
</g>
<g>
</g>
<g>
</g>
<g>
</g>
<g>
</g>
<g>
</g>
<g>
</g>
<g>
</g>
</svg>
